HIERARCHY
ROOT pelvis
{
  OFFSET 0 100 0
  CHANNELS 6 Xposition Yposition Zposition Zrotation Xrotation Yrotation
  JOINT pelvis_right_femur
  {
    OFFSET -10.78128 -3.44521 -0.5502486
    CHANNELS 3 Zrotation Xrotation Yrotation
    JOINT right_femur_tibia
    {
      OFFSET -0.8047443 -44.0398 -0.1307829
      CHANNELS 3 Zrotation Xrotation Yrotation
      JOINT right_tibia_foot
      {
        OFFSET 3.006224 -47.83518 -5
        CHANNELS 3 Zrotation Xrotation Yrotation
        End Site
        {
          OFFSET 0 -5 15
        }
      }
    }
  }
  JOINT pelvis_left_femur
  {
    OFFSET 10.78128 -3.44521 -0.5502486
    CHANNELS 3 Zrotation Xrotation Yrotation
    JOINT left_femur_tibia
    {
      OFFSET 0.8047443 -44.0398 -0.1307829
      CHANNELS 3 Zrotation Xrotation Yrotation
      JOINT left_tibia_foot
      {
        OFFSET -4.370144 -48.10324 -4.275266
        CHANNELS 3 Zrotation Xrotation Yrotation
        End Site
        {
          OFFSET 0 -5 15
        }
      }
    }
  }
  JOINT pelvis_spine1
  {
    OFFSET 0 6.468898 -3.129235
    CHANNELS 3 Zrotation Xrotation Yrotation
    JOINT spine1
    {
      OFFSET 0 23.15396 4.99043
      CHANNELS 3 Zrotation Xrotation Yrotation
      JOINT spine2
      {
        OFFSET 0 20.79997 -5.064912
        CHANNELS 3 Zrotation Xrotation Yrotation
        JOINT neck
        {
          OFFSET 0 14.38658 9.616178
          CHANNELS 3 Zrotation Xrotation Yrotation
          End Site
          {
            OFFSET 0 20 0
          }
        }
      }
      JOINT right_manubrium
      {
        OFFSET -5.722621 16.35077 3.967754
        CHANNELS 3 Zrotation Xrotation Yrotation
        JOINT right_clavicle
        {
          OFFSET -13.16364 1.694482 -4.693211
          CHANNELS 3 Zrotation Xrotation Yrotation
          JOINT right_humerus
          {
            OFFSET -28.5034 -0.3100689 -2.792744
            CHANNELS 3 Zrotation Xrotation Yrotation
            JOINT right_radius
            {
              OFFSET -25.15693 0.02248979 -1.271978
              CHANNELS 3 Zrotation Xrotation Yrotation
              End Site
              {
                OFFSET -15 0 0
              }
            }
          }
        }
      }
      JOINT left_manubrium
      {
        OFFSET 5.722621 16.35077 3.967754
        CHANNELS 3 Zrotation Xrotation Yrotation
        JOINT left_clavicle
        {
          OFFSET 13.16364 1.694482 -4.693211
          CHANNELS 3 Zrotation Xrotation Yrotation
          JOINT left_humerus
          {
            OFFSET 29.39168 -1.063119 -2.237045
            CHANNELS 3 Zrotation Xrotation Yrotation
            JOINT left_radius
            {
              OFFSET 24.59957 -0.9528479 0.9047498
              CHANNELS 3 Zrotation Xrotation Yrotation
              End Site
              {
                OFFSET 15 -0 -0
              }
            }
          }
        }
      }
    }
  }
}
MOTION
Frames: 15
Frame Time: 0.0416666666667
28.28711 101.0232 267.3758 -0.3171434 -1.082489 0.8503177 3.291269 8.058728 6.696794 -0 33.81545 -0 11.59265 -9.972903 -0.8855305 0.563766 -30.08703 -4.746493 -0 25.22567 -0 -8.077688 -8.246194 19.98147 0.8115283 -6.627687 8.683835 -2.10752 11.52926 -3.013714 2.552752 19.61198 3.9756 1.712678 -17.49606 5.505966 1.041485 -23.45524 10.99643 82.55558 20.26923 -6.893532 -0 0 26.752 -24.85818 8.934646 12.97063 2.032741 -15.13907 -2.567929 -91.21906 22.34787 26.14571 0 0 -11.09069 -4.194929 4.934426 19.16112
29.42391 101.4695 274.0672 -0.3028827 -1.041785 1.124948 2.709029 7.855609 6.022547 -0 40.77418 -0 12.11825 -6.873022 -2.002101 -0.6003365 -27.10552 -6.191212 -0 26.69604 -0 -7.460258 -9.035234 19.54562 0.5070889 -7.313671 8.507228 -2.135038 11.49311 -2.831047 2.609496 19.7074 3.99448 1.569294 -17.53644 5.740872 1.63841 -22.31508 11.12944 83.46545 20.01083 -8.228723 -0 0 25.05235 -24.46363 8.86242 12.18649 1.899703 -15.07487 -2.647865 -90.21482 22.78425 24.86774 0 0 -11.185 -4.304624 5.19257 19.15206
30.56538 102.1637 280.7306 -0.2685258 -0.9426475 1.812849 2.427011 3.285896 5.047589 -0 48.67453 -0 12.12962 -6.208529 -3.843047 -1.662988 -23.22515 -6.990849 -0 26.68792 -0 -6.631269 -11.0253 19.25522 0.2721596 -8.268184 7.99675 -2.201973 11.6325 -2.796518 2.62428 20.17053 4.072603 1.412109 -17.373 6.029856 2.494633 -21.11739 11.2774 84.49869 19.96752 -9.888122 -0 0 22.72047 -23.79817 8.889676 11.18101 1.600335 -15.49411 -2.83534 -88.73033 23.28358 23.04731 0 0 -11.45677 -4.241972 5.554767 18.94657
31.6315 103.2938 286.8337 -0.241738 -0.8617327 2.371521 1.823839 -2.655047 4.094453 -0 55.20399 -0 11.29236 -7.05365 -6.211778 -2.31015 -18.8263 -7.4758 -0 25.79147 -0 -6.009435 -12.86466 18.88508 0.1249468 -8.872056 7.12949 -2.192605 11.7267 -3.002068 2.457006 20.72262 4.2796 1.143018 -17.11549 6.358946 3.476057 -20.2981 11.47318 85.41164 20.02755 -11.39478 -0 0 20.41747 -23.02765 8.93158 10.16028 1.148402 -16.1736 -3.247601 -86.92797 23.81079 20.50677 0 0 -11.93042 -4.062144 6.005917 18.59553
32.60076 104.5522 292.4854 -0.2238849 -0.8052335 2.757891 1.437918 -8.754067 3.348159 -0 57.66188 -0 10.41949 -7.364325 -8.04871 -2.62788 -14.49322 -7.825803 -0 24.00717 -0 -5.72484 -14.24495 18.41127 -0.1027383 -9.301551 5.957904 -2.08932 11.8138 -3.616292 2.279027 21.41876 4.582054 0.8776733 -16.62386 6.798423 3.975985 -19.51015 11.41568 86.57515 20.04062 -12.90192 -0 0 18.80111 -22.28902 8.883126 9.333618 0.9187944 -16.91473 -3.824767 -85.01224 24.31327 17.39123 0 0 -12.67522 -3.832307 6.527373 18.142
33.54106 105.6665 297.8067 -0.170198 -0.634411 3.940095 1.488461 -15.13347 2.789866 -0 55.45706 -0 9.093864 -7.696906 -9.307978 -2.900535 -9.568487 -7.928678 -0 21.13024 -0 -5.645453 -15.49971 17.59213 -0.4574136 -9.482917 4.594681 -1.791389 11.82243 -4.803462 2.224791 22.03667 4.834122 0.694115 -15.98721 7.253298 3.823565 -18.72764 10.915 87.43972 19.92696 -14.5361 -0 0 17.59741 -21.69241 8.707495 8.640045 0.9370887 -17.73707 -4.491261 -83.05578 24.73246 13.8407 0 0 -13.83267 -3.557601 7.12737 17.50177
34.46839 106.2169 303.091 -0.09304676 -0.3683973 5.776287 1.388945 -20.40827 2.601219 -0 49.46138 -0 7.519523 -7.603281 -10.34018 -3.148813 -5.306056 -7.73186 -0 17.87937 -0 -5.677516 -16.9046 16.66239 -0.8698082 -9.465405 3.257945 -1.279538 11.81262 -6.315011 2.335672 22.61096 4.920421 0.6223035 -15.21624 7.605856 3.247788 -17.92485 10.16182 88.02477 19.71356 -16.21695 -0 0 16.69591 -21.23426 8.413649 8.069424 1.203445 -18.63921 -5.147705 -81.07743 25.05756 10.03737 0 0 -15.35235 -3.225571 7.783301 16.63658
35.27826 105.9829 308.0178 -0.03146073 -0.1316723 7.402031 0.5206016 -24.82461 2.204645 -0 40.48569 -0 5.838852 -7.398082 -11.34568 -3.122238 -1.235856 -7.746326 -0 16.23749 -0 -5.619928 -18.37115 15.52768 -1.383811 -9.024838 2.198175 -0.5496217 11.09861 -7.734849 2.589988 22.59362 5.024049 0.5816768 -14.95959 8.108572 2.653761 -17.12429 9.524693 88.32267 19.50449 -17.88176 -0 0 15.59543 -20.80299 8.068154 7.3976 1.661944 -19.60632 -5.939561 -79.04022 25.30001 6.165023 0 0 -17.01399 -2.854934 8.468795 15.6149
36.0664 105.2022 313.0517 0.01259153 0.05510612 8.681137 -0.7297698 -27.68507 1.762041 -0 30.25215 -0 4.037105 -7.286589 -12.37492 -3.024282 2.166022 -7.768501 -0 15.41873 -0 -5.591113 -20.06271 14.46049 -1.637616 -8.478637 1.493386 0.1545762 10.55219 -8.721428 2.842563 22.66269 4.993896 0.5620492 -14.66358 8.423759 2.213876 -16.51071 9.040683 88.43478 19.32791 -19.28721 -0 0 14.38668 -20.38107 7.71776 6.612066 2.105573 -20.53751 -6.381346 -77.31179 25.33723 2.628989 0 0 -18.84129 -2.43057 9.124435 14.46875
36.91851 103.9484 318.7193 0.05747937 0.2653722 10.11856 -1.151485 -30.40343 2.192866 -0 21.54729 -0 1.98474 -7.513842 -13.36304 -2.836782 5.344737 -7.850456 -0 15.62391 -0 -5.719942 -21.66227 13.52795 -1.727299 -8.497524 0.7634382 0.6650574 10.21056 -9.436439 3.088527 22.74607 4.862017 0.562835 -14.43065 8.580895 1.750554 -15.47955 8.514049 88.72329 19.13492 -20.90323 -0 0 12.74053 -19.85167 7.422026 5.641667 2.603705 -21.3093 -6.459229 -75.99747 25.26348 -0.2435174 0 0 -20.57876 -1.970546 9.765838 13.27933
37.33745 102.8846 324.3498 0.07893782 0.3743551 10.8646 -1.853269 -33.0247 2.477237 -0 16.90809 -0 0.06548132 -8.034475 -13.85524 -2.363546 8.087652 -7.852631 -0 16.832 -0 -6.182145 -22.58598 12.84247 -1.94223 -8.273163 0.4384934 1.177956 9.889793 -9.701024 3.321036 22.99282 4.641596 0.5897862 -14.26125 8.597157 1.810176 -14.91709 8.358441 88.80472 19.03458 -21.95735 -0 0 11.00814 -19.30413 7.177715 4.511138 3.040506 -22.11679 -6.381456 -74.9818 25.10574 -2.355973 0 0 -21.90891 -1.524924 10.36461 12.15569
37.71536 101.8615 330.389 0.09623594 0.4672322 11.50113 -0.7793935 -33.79225 2.871866 -0 16.75527 -0 -1.259256 -8.066049 -14.77508 -1.829899 10.23045 -7.906195 -0 19.48055 -0 -7.027805 -22.35338 12.50431 -1.955733 -8.468911 0.2795045 1.598281 9.694843 -9.702549 3.516975 23.35936 4.388748 0.6439409 -14.06649 8.514374 2.02462 -14.26728 8.247804 89.06342 18.90955 -22.8004 -0 0 9.414177 -18.67558 6.983885 3.315138 3.381838 -22.69286 -6.011341 -74.75091 24.99236 -3.430266 0 0 -22.74011 -1.18051 10.90593 11.22079
38.00137 101.201 337.2228 0.1172057 0.5888029 12.33272 0.8820522 -33.21465 4.404686 -0 19.96764 -0 -1.986422 -7.10768 -14.79715 -1.181336 11.49436 -8.213468 -0 24.00304 -0 -8.274463 -20.41944 12.62122 -2.026598 -9.244172 0.005958945 1.825899 9.589838 -9.766967 3.689535 23.75683 4.119925 0.7271364 -13.90663 8.364154 2.162734 -13.60821 8.019842 89.50506 18.7065 -23.27608 -0 0 8.488617 -18.08114 6.813871 2.259166 3.731777 -22.58375 -5.51395 -75.37344 24.99531 -3.205238 0 0 -22.84003 -0.9957418 11.40604 10.59812
38.28742 101.0017 344.1283 0.129279 0.6631764 12.84366 2.333343 -32.54125 6.437928 -0 24.46005 -0 -2.684583 -6.253008 -14.34473 -0.7161604 11.24217 -8.294451 -0 30.76952 -0 -9.770683 -16.73337 13.42528 -1.974586 -10.28621 -0.127882 1.979413 9.514091 -9.78337 3.754883 24.30144 3.900085 0.790302 -13.71815 8.166468 2.121536 -13.13999 7.607548 89.86406 18.47045 -23.46338 -0 0 8.173529 -17.56736 6.623522 1.345071 3.977512 -21.70835 -4.990121 -76.68295 25.13216 -2.215221 0 0 -22.15009 -1.044532 11.86236 10.3229
38.59588 101.4226 351.1175 0.1211057 0.6101447 12.48759 3.370081 -30.28764 8.22938 -0 28.73913 -0 -3.739151 -6.44628 -13.63398 -0.5668457 8.738615 -8.044435 -0 39.46651 -0 -11.14983 -12.26576 15.14356 -1.736415 -11.09943 0.2115568 1.95217 9.407938 -9.411068 3.837104 24.76565 3.655397 0.8667998 -13.81412 7.950704 2.06343 -12.74703 7.524373 90.03845 18.23428 -23.20347 -0 0 8.373746 -17.21977 6.385987 0.573263 3.960028 -20.62153 -4.5078 -78.57559 25.35389 -0.2941877 0 0 -20.52222 -1.345355 12.28576 10.42501
